PathFileType	4	(X/Y/Z)	F:\MotionCapture\20160217\3\Generated_files\EMG_Fprce_test02-Dynamic.trc
DataRate	CameraRate	NumFrames	NumMarkers	Units	OrigDataRate	OrigDataStartFrame	OrigNumFrames
120.00	120.00	       4	39	mm	120.00	352	       703
Frame#	Time	Top.Head			Front.Head			Rear.Head			R.Shoulder			R.Offset			R.Elbow			R.Wrist			L.Shoulder			L.Elbow			L.Wrist			R.ASIS			L.ASIS			V.Sacral			R.Thigh			R.Knee			R.Shank			R.Ankle			R.Heel			R.Toe			L.Thigh			L.Knee			L.Shank			L.Ankle			L.Heel			L.Toe			R1			R2			R3			R4			R5			R6			R7			L1			L2			L3			L4			L5			L6			L7			V_Mid_ASIS			V_Pelvis_Origin			V_R.Hip_JC			V_L.Hip_JC			V_R.Knee_JC			V_L.Knee_JC			V_R.Ankle_JC			V_L.Ankle_JC			V_Mid_Hip			V_Mid_Shoulder			V_R.Hand			V_L.Hand			V_R.Toe_Offset_Static			V_L.Toe_Offset_Static			V_R.Toe_Offset			V_L.Toe_Offset			
		X1	Y1	Z1	X2	Y2	Z2	X3	Y3	Z3	X4	Y4	Z4	X5	Y5	Z5	X6	Y6	Z6	X7	Y7	Z7	X8	Y8	Z8	X9	Y9	Z9	X10	Y10	Z10	X11	Y11	Z11	X12	Y12	Z12	X13	Y13	Z13	X14	Y14	Z14	X15	Y15	Z15	X16	Y16	Z16	X17	Y17	Z17	X18	Y18	Z18	X19	Y19	Z19	X20	Y20	Z20	X21	Y21	Z21	X22	Y22	Z22	X23	Y23	Z23	X24	Y24	Z24	X25	Y25	Z25	X26	Y26	Z26	X27	Y27	Z27	X28	Y28	Z28	X29	Y29	Z29	X30	Y30	Z30	X31	Y31	Z31	X32	Y32	Z32	X33	Y33	Z33	X34	Y34	Z34	X35	Y35	Z35	X36	Y36	Z36	X37	Y37	Z37	X38	Y38	Z38	X39	Y39	Z39	

352	2.925	134.80960	149.45329	1724.23792	16.26933	144.60208	1652.05273	236.97839	146.32826	1645.14905				300.34491	91.95699	1273.23669	261.35574	-219.46379	870.28510	266.94867	-176.03917	1126.14709	155.20152	-61.57701	1413.54651				159.03319	344.49371	1423.63086	121.25426	297.36938	934.93683	97.95941	12.43634	942.69232	331.02316	128.63330	942.68188	133.84038	224.08821	553.18878	217.54042	260.69763	454.49683	262.81021	175.19997	227.69272	337.01743	241.74655	69.92990	407.95764	179.82423	45.57455	195.14882	224.16734	38.53219	-53.32562	30.98790	693.40936	-28.97241	-30.16047	504.34009	-47.93499	51.16668	364.40216	40.73954	15.29058	97.86654	96.86319	82.39169	83.47180	-92.37166	7.33048	75.45087	149.34676	203.46202	36.76380	190.37967	184.88179	42.68034	287.75113	149.17862	50.31000	361.71939	148.64803	41.34824	375.95944	223.05054	43.54251	302.29459	250.29550	35.68729	236.23143	267.39734	34.49004	-137.34357	23.52946	77.62306	-109.65054	42.02026	81.55151	-26.87233	94.44788	92.94193	53.27391	107.25906	87.40134	75.25618	38.80180	78.19645	5.76042	-0.96684	64.21107	-54.64113	-15.58116	66.66312																																																	175.16246	472.94806	1106.24939	-20.75994	434.33124	934.74493	
353	2.933	122.86819	148.76395	1721.71570	4.20526	144.33598	1649.92908	224.57971	146.39122	1642.48157				288.06049	91.73049	1271.08801	260.88797	-222.21674	870.94836	259.46808	-175.73227	1126.08020	143.25821	-61.84238	1411.13452				146.30998	344.36124	1421.25562	109.87630	297.87024	932.66913	85.51953	12.58506	939.72363	319.40665	127.88135	940.32996	126.20968	224.70192	551.16748	212.35258	260.74335	452.84415	259.80502	175.53191	226.86609	336.77411	241.36923	69.99902	407.49359	179.29971	45.85302	195.50546	224.04485	38.61044	-66.77403	31.57650	691.38574	-43.54450	-28.60519	502.38474	-68.81232	52.23232	363.75412	3.18330	13.45226	92.36866	59.43702	78.80036	74.58679	-132.04427	7.31361	78.90518	148.95787	203.98940	36.73508	190.09912	185.09012	42.61433	287.21646	149.19691	49.75897	361.30466	148.17056	41.60620	375.65314	222.45543	44.08841	302.12738	250.05420	35.68460	236.22440	267.48563	34.44962	-176.67221	24.61503	85.07282	-147.01819	43.08177	85.56606	-62.79719	92.86573	91.18678	16.35393	105.01427	81.16003	37.53087	35.73264	71.25422	-34.28403	-2.60436	61.55416	-94.06696	-16.30264	67.70518																																																	159.90369	473.72977	1104.65637	-40.38618	432.55017	938.82343	
354	2.942	111.11419	148.35220	1718.98523	-7.99947	143.72427	1647.33118	212.33595	145.67323	1639.72266				274.92145	91.45862	1267.92590	259.54059	-224.71558	871.35510	251.49326	-175.80035	1126.02332	130.95541	-61.78435	1408.58582				133.92041	343.94876	1418.72266	97.40607	296.98685	930.71100	72.67059	12.45337	936.76056	306.96460	127.03101	937.63599	118.24404	225.45207	549.08411	207.31308	260.96167	451.88525	257.22772	175.26288	226.14746	335.41217	240.61636	69.47527	407.39230	178.51784	46.51950	195.40909	224.11328	38.34267	-79.42946	32.03506	688.74371	-57.88972	-27.05810	500.21030	-89.70559	53.18261	363.22348	-35.51333	12.01899	87.64550	18.79368	76.06454	64.51295	-168.81615	7.28382	82.43209	148.65689	204.61905	36.01475	189.37564	185.74835	42.69060	287.03421	148.63121	49.97592	360.96536	147.84505	41.87561	375.63330	221.87871	44.91896	301.99548	249.73398	35.61773	236.30037	267.60388	34.28008	-209.73756	25.25739	94.76023	-182.79245	42.12082	90.18523	-98.78596	91.66052	90.59883	-19.53414	102.36158	75.66449	-0.21235	33.04757	65.33565	-75.45375	-3.23619	57.64138	-132.98380	-17.30243	69.03593																																																	144.01663	475.56586	1102.76990	-59.60357	430.97690	942.93341	
355	2.950	99.05936	147.78851	1716.36084	-19.77873	143.30377	1644.81104	200.12674	145.28481	1636.90686				262.54623	91.05151	1265.30627	258.08035	-227.48700	871.88257	243.62088	-175.87349	1125.55933	119.16932	-62.26444	1406.22327				121.49764	343.58728	1415.96716	86.47041	297.81168	928.32019	59.78653	12.53246	933.50000	294.28598	126.13048	934.93695	110.16030	226.80746	547.08344	201.81989	261.21094	450.54886	254.34061	175.10999	224.91931	336.51056	239.89890	70.60215	407.18127	177.49989	47.44538	195.28458	224.42717	38.26623	-91.51617	32.52114	685.12366	-71.60134	-24.92908	497.03333	-109.81394	54.30397	362.27786	-71.59513	9.70257	84.70511	-16.55311	72.21482	58.58271	-204.76785	7.07347	86.86752	147.81715	205.38414	36.04223	190.31276	184.62857	41.57712	286.98663	147.88326	49.97931	360.61707	147.21255	42.63857	375.42435	221.34586	45.39091	302.08951	249.19908	35.65858	236.29762	267.64777	34.18204	-247.45088	25.06252	98.57838	-217.26408	41.91822	95.15524	-133.35844	89.68134	90.19316	-54.86089	99.90942	71.39675	-36.43195	30.11858	61.04905	-112.88001	-5.31828	57.63179	-170.16461	-18.62407	71.89039																																																	-205.49353	6.24896	86.37679	128.57454	476.50809	1100.75964	1030.38599	-300.45001	-294.67474	-79.25014	429.45728	946.80835	
